<svg id="svg" xmlns="http://www.w3.org/2000/svg" xmlns:xlink="http://www.w3.org/1999/xlink" width="400" height="462.55639097744364" viewBox="0, 0, 400,462.55639097744364"><g id="svgg"><path id="path0" d="M188.872 20.074 C 188.872 20.197,189.422 21.542,190.095 23.062 C 196.880 38.402,195.196 51.350,183.887 70.777 C 170.064 94.525,168.604 105.834,176.991 124.211 C 185.079 141.934,184.890 154.445,176.481 157.959 C 169.259 160.976,164.486 157.105,162.704 146.784 C 161.089 137.425,160.272 135.576,151.959 122.456 C 143.400 108.949,142.713 91.570,150.155 76.842 C 151.884 73.420,151.610 73.346,147.491 76.120 C 139.767 81.321,132.752 89.369,128.449 97.964 C 121.918 111.009,121.917 122.340,128.443 146.466 C 131.472 157.665,131.765 166.729,129.269 172.030 C 122.215 187.009,107.076 184.708,108.502 168.874 C 109.499 157.799,109.590 153.534,108.902 150.218 C 107.216 142.098,100.647 133.076,93.950 129.683 L 90.771 128.072 91.744 129.952 C 97.663 141.399,94.370 153.674,80.418 172.171 C 62.671 195.699,59.517 217.959,70.296 243.613 L 72.019 247.714 69.118 256.338 C 50.001 313.167,72.539 377.809,123.291 411.718 C 214.832 472.878,336.241 407.432,336.241 296.925 C 336.241 285.307,333.360 264.407,330.849 257.802 C 330.470 256.804,330.953 254.617,332.668 249.575 C 340.477 226.619,338.293 209.728,324.295 184.803 C 312.017 162.940,309.453 151.236,314.604 140.573 C 315.256 139.224,315.789 138.020,315.789 137.897 C 315.789 136.937,307.924 142.193,305.671 144.659 C 298.788 152.190,296.838 158.901,297.445 172.962 C 298.067 187.374,295.154 192.138,287.940 188.504 C 279.865 184.437,277.656 177.023,281.151 165.714 C 285.740 150.864,283.267 140.524,271.872 126.917 C 258.243 110.641,253.741 97.958,257.620 86.767 C 258.667 83.745,258.500 83.690,255.005 85.908 C 243.917 92.945,239.620 106.599,243.006 124.039 C 245.991 139.417,239.927 147.990,229.434 143.224 C 217.466 137.788,212.559 120.563,216.822 98.947 C 223.691 64.118,219.799 46.515,201.378 29.097 C 196.236 24.235,188.872 18.922,188.872 20.074 M217.143 178.375 C 220.947 178.861,225.358 179.598,226.944 180.013 L 229.828 180.768 224.671 184.868 C 218.730 189.592,218.256 190.210,216.282 195.834 C 215.478 198.125,214.131 201.624,213.289 203.609 C 208.743 214.325,217.091 219.405,223.941 210.093 C 227.294 205.535,228.526 204.673,236.618 201.223 C 246.970 196.809,249.645 194.975,252.331 190.451 C 253.847 187.897,273.083 199.736,273.083 203.223 C 273.083 204.818,271.551 206.917,270.388 206.917 C 267.393 206.917,265.965 212.019,267.363 217.723 C 268.873 223.884,269.910 224.962,274.329 224.962 C 277.665 224.962,278.521 225.358,277.444 226.402 C 277.195 226.642,276.575 228.244,276.065 229.961 C 275.200 232.871,274.853 233.253,270.952 235.593 C 263.454 240.091,259.978 245.242,260.645 250.871 C 261.145 255.094,259.893 256.427,254.526 257.386 C 248.399 258.481,246.632 261.625,248.417 268.255 C 250.154 274.706,254.462 276.601,262.298 274.360 C 268.104 272.699,268.735 272.140,271.649 266.074 C 276.235 256.526,279.693 254.799,284.897 259.458 C 298.068 271.247,306.258 271.592,301.353 260.150 C 300.692 258.607,300.157 256.487,300.164 255.439 L 300.178 253.534 302.721 256.316 C 304.119 257.846,306.638 260.679,308.319 262.613 C 311.172 265.894,311.551 266.129,314.030 266.147 L 316.685 266.165 318.152 272.951 C 320.041 281.692,319.757 282.193,313.756 280.686 C 308.444 279.352,307.434 279.427,304.328 281.388 C 300.283 283.942,300.237 283.940,294.436 280.969 C 290.181 278.789,288.572 277.584,286.918 275.338 C 284.256 271.724,282.669 271.633,273.009 274.542 C 269.245 275.675,264.569 276.891,262.619 277.244 C 258.355 278.016,255.927 279.741,252.121 284.699 C 250.582 286.703,247.970 289.927,246.316 291.863 C 239.167 300.232,238.673 301.579,237.857 314.957 C 237.396 322.528,237.774 323.705,243.379 332.136 C 250.049 342.170,257.084 344.127,269.137 339.301 C 274.898 336.994,276.191 336.975,278.039 339.172 C 279.716 341.165,281.533 342.256,283.176 342.256 C 285.755 342.256,286.616 344.338,285.861 348.749 C 285.053 353.467,285.440 355.710,288.162 362.107 C 290.404 367.376,290.321 369.161,287.519 375.940 C 286.493 378.421,285.494 381.613,285.298 383.032 C 284.903 385.896,281.230 389.720,272.782 396.060 C 245.524 416.515,212.472 424.456,179.094 418.568 C 174.405 417.741,174.401 417.768,179.494 415.619 C 185.280 413.179,186.677 411.925,191.075 405.229 C 196.421 397.090,196.891 396.615,201.907 394.297 C 207.538 391.694,209.118 389.489,212.105 380.069 C 214.271 373.238,214.666 372.490,218.154 368.600 C 226.878 358.871,224.881 356.249,202.678 348.281 C 192.325 344.566,192.481 344.677,192.481 341.025 C 192.481 336.364,191.047 335.160,178.608 329.385 C 177.428 328.838,174.629 326.496,172.388 324.182 C 167.586 319.225,166.640 318.685,160.301 317.285 C 150.328 315.083,148.164 315.321,142.126 319.286 C 135.139 323.874,131.496 322.655,129.085 314.922 C 127.623 310.233,127.252 309.621,125.019 308.212 C 122.618 306.696,122.573 306.604,123.006 304.157 C 124.396 296.305,123.332 295.047,116.534 296.509 C 111.682 297.552,110.810 297.478,109.112 295.883 C 103.593 290.698,108.429 277.860,116.834 275.386 C 126.199 272.629,131.729 275.997,131.729 284.458 C 131.729 287.490,131.938 288.198,133.066 288.988 C 136.319 291.267,138.035 289.378,139.592 281.805 C 142.096 269.620,147.349 262.290,159.098 254.584 C 166.707 249.593,168.316 248.254,171.371 244.371 C 174.228 240.738,175.779 240.141,178.935 241.460 C 187.635 245.095,194.512 236.635,188.517 229.673 C 186.998 227.909,184.045 224.030,181.955 221.053 C 173.633 209.196,167.989 208.374,162.793 218.261 C 159.734 224.083,156.143 225.627,153.495 222.261 C 150.114 217.963,151.543 214.094,159.019 207.307 C 162.141 204.473,164.559 201.719,165.198 200.272 C 166.513 197.290,167.247 197.296,172.071 200.320 C 182.016 206.555,188.954 206.680,192.067 200.681 C 194.179 196.610,188.760 183.090,183.840 180.156 C 181.464 178.740,181.455 178.720,182.974 178.338 C 188.426 176.970,206.283 176.989,217.143 178.375 M255.348 222.740 C 254.892 223.834,254.337 225.447,254.117 226.325 C 253.897 227.203,252.535 228.890,251.092 230.072 C 245.668 234.517,247.167 241.805,253.504 241.805 C 261.933 241.805,266.468 238.826,266.464 233.293 C 266.462 230.208,264.828 226.165,263.583 226.165 C 263.311 226.165,262.230 224.947,261.181 223.459 C 258.740 219.995,256.605 219.732,255.348 222.740 M86.318 271.127 C 87.716 293.706,90.910 299.899,104.550 306.474 C 109.954 309.079,112.114 310.998,118.593 318.952 C 122.053 323.199,124.568 325.609,127.696 327.673 C 133.558 331.543,133.781 332.332,130.961 339.240 C 125.161 353.445,128.305 362.521,143.941 376.717 C 151.532 383.608,151.812 384.362,152.086 398.647 C 152.208 405.015,152.126 410.226,151.904 410.226 C 150.943 410.226,142.156 405.849,136.872 402.740 C 97.871 379.786,74.028 334.906,77.491 290.968 C 78.449 278.822,83.789 254.416,85.184 255.811 C 85.293 255.920,85.804 262.812,86.318 271.127 " stroke="none" fill="#000000" fill-rule="evenodd"></path></g></svg>